<svg width="1440" height="1024" viewBox="0 0 1440 1024" fill="none" xmlns="http://www.w3.org/2000/svg">
<path d="M0 984V1024H1440V984C1440 984 1312.5 968.541 1078 961.271C843.5 954 840 954 728.5 954C617 954 611.5 954 319.5 968.724C27.4998 983.447 0 984 0 984Z" fill="#40291C"/>
<path d="M0 987C562.355 987 877.645 987 1440 987V1024H0V987Z" fill="#0D0908"/>
<rect x="983" y="865" width="72" height="116" fill="#40291C"/>
<rect x="992" y="865" width="72" height="116" fill="#0D0908"/>
<rect x="1203" y="865" width="174" height="116" fill="#40291C"/>
<rect x="1225" y="865" width="174" height="116" fill="#0D0908"/>
<rect x="1296" y="835" width="64" height="30" fill="#40291C"/>
<rect x="1312" y="835" width="88" height="30" fill="#0D0908"/>
<rect x="1064" y="933" width="121" height="48" fill="#40291C"/>
<rect x="1080" y="933" width="124" height="48" fill="#0D0908"/>
<rect x="937" y="896" width="73" height="85" fill="#40291C"/>
<rect x="946" y="896" width="73" height="85" fill="#0D0908"/>
<rect x="856" y="812" width="72" height="169" fill="#40291C"/>
<rect x="865" y="812" width="72" height="169" fill="#0D0908"/>
<rect x="740" y="873" width="103" height="108" fill="#40291C"/>
<rect x="753" y="873" width="103" height="108" fill="#0D0908"/>
<rect x="637" y="922" width="103" height="59" fill="#40291C"/>
<rect x="650" y="922" width="103" height="59" fill="#0D0908"/>
<rect x="556" y="860" width="72" height="121" fill="#40291C"/>
<rect x="565" y="860" width="72" height="121" fill="#0D0908"/>
<rect x="454" y="860" width="72" height="121" fill="#40291C"/>
<rect x="463" y="860" width="72" height="121" fill="#0D0908"/>
<rect x="343" y="773" width="72" height="208" fill="#40291C"/>
<rect x="352" y="773" width="72" height="208" fill="#0D0908"/>
<rect x="262" y="732" width="72" height="249" fill="#40291C"/>
<rect x="271" y="732" width="72" height="249" fill="#0D0908"/>
<rect x="81" y="874" width="161" height="107" fill="#40291C"/>
<rect x="101" y="874" width="161" height="107" fill="#0D0908"/>
<rect x="158" y="888" width="18" height="9" fill="#40291C"/>
<rect x="198" y="888" width="18" height="9" fill="#40291C"/>
<rect x="118" y="888" width="18" height="9" fill="#40291C"/>
<rect x="118" y="906" width="18" height="10" fill="#40291C"/>
<rect x="226" y="906" width="18" height="10" fill="#40291C"/>
<rect x="199" y="906" width="18" height="10" fill="#40291C"/>
<rect x="172" y="924" width="18" height="9" fill="#40291C"/>
<rect x="226" y="924" width="18" height="9" fill="#40291C"/>
<rect x="118" y="924" width="18" height="9" fill="#40291C"/>
<rect x="145" y="943" width="18" height="9" fill="#40291C"/>
<rect x="199" y="943" width="18" height="9" fill="#40291C"/>
<rect x="118" y="943" width="18" height="9" fill="#40291C"/>
<path d="M797 840L863.684 873.75H730.316L797 840Z" fill="#40291C"/>
<path d="M796.692 840L864 874H749L796.692 840Z" fill="#0D0908"/>
<path d="M752 890V922H637L752 890Z" fill="#40291C"/>
<path d="M753 890V922H650L753 890Z" fill="#0D0908"/>
<rect x="865" y="802" width="58" height="10" fill="#40291C"/>
<rect x="873" y="802" width="58" height="10" fill="#0D0908"/>
<rect x="873" y="795" width="45" height="7" fill="#40291C"/>
<rect x="879" y="795" width="46" height="7" fill="#0D0908"/>
<rect x="879" y="787" width="35" height="8" fill="#40291C"/>
<rect x="884" y="787" width="35" height="8" fill="#0D0908"/>
<rect x="884" y="783" width="27" height="4" fill="#40291C"/>
<rect x="888" y="783" width="28" height="4" fill="#0D0908"/>
<rect x="888" y="780" width="21" height="3" fill="#40291C"/>
<rect x="891" y="780" width="20" height="3" fill="#0D0908"/>
<rect x="895" y="773" width="9" height="7" fill="#40291C"/>
<rect x="897" y="773" width="9" height="7" fill="#0D0908"/>
<rect x="899" y="738" width="3" height="35" fill="#40291C"/>
<rect x="900" y="738" width="3" height="35" fill="#0D0908"/>
<rect x="1034" y="871" width="18" height="9" fill="#40291C"/>
<rect x="960" y="900" width="10" height="9" fill="#40291C"/>
<rect x="882" y="891" width="10" height="9" fill="#40291C"/>
<rect x="918" y="909" width="10" height="8" fill="#40291C"/>
<rect x="882" y="926" width="10" height="8" fill="#40291C"/>
<rect x="608" y="874" width="10" height="9" fill="#40291C"/>
<rect x="581" y="874" width="10" height="9" fill="#40291C"/>
<rect x="608" y="891" width="10" height="9" fill="#40291C"/>
<rect x="581" y="891" width="10" height="9" fill="#40291C"/>
<rect x="397" y="791" width="10" height="10" fill="#40291C"/>
<rect x="370" y="808" width="10" height="10" fill="#40291C"/>
<rect x="397" y="826" width="10" height="9" fill="#40291C"/>
<rect x="397" y="843" width="10" height="10" fill="#40291C"/>
<rect x="288" y="826" width="10" height="9" fill="#40291C"/>
<rect x="315" y="843" width="10" height="10" fill="#40291C"/>
<rect x="371" y="860" width="10" height="10" fill="#40291C"/>
<rect x="315" y="860" width="10" height="10" fill="#40291C"/>
<rect x="398" y="878" width="10" height="8" fill="#40291C"/>
<rect x="398" y="912" width="10" height="9" fill="#40291C"/>
<rect x="371" y="912" width="10" height="9" fill="#40291C"/>
<rect x="371" y="929" width="10" height="9" fill="#40291C"/>
<rect x="398" y="946" width="10" height="9" fill="#40291C"/>
<rect x="371" y="946" width="10" height="9" fill="#40291C"/>
<rect x="315" y="756" width="10" height="10" fill="#40291C"/>
<rect x="288" y="912" width="10" height="9" fill="#40291C"/>
<rect x="315" y="946" width="10" height="9" fill="#40291C"/>
<rect x="288" y="773" width="10" height="10" fill="#40291C"/>
<rect x="315" y="808" width="10" height="10" fill="#40291C"/>
<rect x="288" y="946" width="10" height="9" fill="#40291C"/>
<rect x="480" y="874" width="10" height="9" fill="#40291C"/>
<rect x="507" y="891" width="10" height="9" fill="#40291C"/>
<rect x="480" y="909" width="10" height="9" fill="#40291C"/>
<rect x="480" y="926" width="10" height="9" fill="#40291C"/>
<rect x="507" y="944" width="10" height="10" fill="#40291C"/>
<rect x="608" y="909" width="10" height="8" fill="#40291C"/>
<rect x="581" y="926" width="10" height="9" fill="#40291C"/>
<rect x="608" y="944" width="10" height="8" fill="#40291C"/>
<rect x="581" y="944" width="10" height="8" fill="#40291C"/>
<rect x="918" y="943" width="10" height="9" fill="#40291C"/>
<rect x="901" y="943" width="10" height="9" fill="#40291C"/>
<rect x="464" y="998" width="168" height="6" fill="#40291C"/>
<rect x="128" y="998" width="168" height="6" fill="#40291C"/>
<rect x="800" y="998" width="168" height="6" fill="#40291C"/>
<rect x="1136" y="998" width="168" height="6" fill="#40291C"/>
<rect x="918" y="873" width="10" height="9" fill="#40291C"/>
<rect x="882" y="873" width="10" height="9" fill="#40291C"/>
<rect x="901" y="856" width="10" height="9" fill="#40291C"/>
<rect x="918" y="839" width="10" height="8" fill="#40291C"/>
<rect x="882" y="839" width="10" height="8" fill="#40291C"/>
<rect x="901" y="821" width="10" height="9" fill="#40291C"/>
<rect x="960" y="941" width="10" height="10" fill="#40291C"/>
<rect x="974" y="921" width="11" height="8" fill="#40291C"/>
<rect x="1000" y="871" width="18" height="9" fill="#40291C"/>
<rect x="1034" y="921" width="18" height="8" fill="#40291C"/>
<rect x="1086" y="944" width="34" height="7" fill="#40291C"/>
<rect x="1125" y="944" width="35" height="7" fill="#40291C"/>
<rect x="1164" y="944" width="33" height="7" fill="#40291C"/>
<rect x="1324" y="876" width="52" height="9" fill="#40291C"/>
<rect x="1324" y="845" width="52" height="11" fill="#40291C"/>
<rect x="1237" y="896" width="52" height="10" fill="#40291C"/>
<rect x="1324" y="915" width="52" height="9" fill="#40291C"/>
<rect x="1237" y="934" width="52" height="10" fill="#40291C"/>
<rect x="1000" y="900" width="18" height="9" fill="#40291C"/>
<rect x="825" y="943" width="18" height="9" fill="#40291C"/>
<rect x="825" y="926" width="18" height="8" fill="#40291C"/>
<rect x="771" y="926" width="18" height="9" fill="#40291C"/>
<rect x="667" y="926" width="19" height="9" fill="#40291C"/>
<rect x="720" y="944" width="18" height="8" fill="#40291C"/>
<rect x="667" y="944" width="19" height="8" fill="#40291C"/>
<rect x="798" y="909" width="18" height="8" fill="#40291C"/>
<rect x="825" y="891" width="18" height="9" fill="#40291C"/>
<rect x="771" y="891" width="18" height="9" fill="#40291C"/>
<rect x="825" y="873" width="18" height="9" fill="#40291C"/>
<rect x="798" y="874" width="18" height="9" fill="#40291C"/>
<rect x="771" y="874" width="18" height="9" fill="#40291C"/>
<rect x="1000" y="943" width="18" height="9" fill="#40291C"/>
<path d="M1092 921V933H1064L1092 921Z" fill="#40291C"/>
<path d="M1092 921V933H1080L1092 921Z" fill="#0D0908"/>
<path d="M1120 921V933H1092L1120 921Z" fill="#40291C"/>
<path d="M1120 921V933H1108L1120 921Z" fill="#0D0908"/>
<path d="M1148 921V933H1120L1148 921Z" fill="#40291C"/>
<path d="M1148 921V933H1136L1148 921Z" fill="#0D0908"/>
<path d="M1176 921V933H1148L1176 921Z" fill="#40291C"/>
<path d="M1176 921V933H1164L1176 921Z" fill="#15364F"/>
<path d="M1204 921V933H1176L1204 921Z" fill="#40291C"/>
<path d="M1204 921V933H1192L1204 921Z" fill="#0D0908"/>
</svg>
